<?xml version="1.0" encoding="utf-8"?>
<!-- Generator: Adobe Illustrator 21.1.0, SVG Export Plug-In . SVG Version: 6.00 Build 0)  -->
<svg version="1.1" id="Layer_1" xmlns="http://www.w3.org/2000/svg" xmlns:xlink="http://www.w3.org/1999/xlink" x="0px" y="0px"
	 viewBox="0 0 1242 2208" style="enable-background:new 0 0 1242 2208;" xml:space="preserve">
<style type="text/css">
	.st0{fill:#194168;}
	.st1{fill:#FFFFFF;}
	.st2{display:none;fill:#FFFFFF;}
	.st3{font-family:'MyriadPro-Bold';}
	.st4{font-size:44.3761px;}
</style>
<g>
	<path class="st0" d="M460,1135.4c0,92.6,59.8,197.6,161,197.6c92.5,0,160-92.4,160-197c0.1-119.9-90.6-261-160-261
		C547.7,875,460,1026.9,460,1135.4z"/>
	<path class="st1" d="M680.4,1002c-0.5-52.2-22.3-73.3-60.1-73.3c-34.6,0-59.8,21.3-59.8,73.1c0,41.8,33.8,73.5,59.8,73.5
		C647.7,1075.3,680.8,1039.9,680.4,1002z"/>
	<path class="st1" d="M740.6,1190.3c0,0.8-1.1,31.7-118.1,31.7c-122.1,0-122-30.8-122-31.7c0-0.8-6.5-92.7,119.2-92.7
		C740.6,1097.6,740.6,1189.5,740.6,1190.3z"/>
	<text transform="matrix(0.9922 0 0 1 530.0737 1261.9595)" class="st2 st3 st4">Jane Doe</text>
</g>
</svg>
